<svg width="914" height="400" fill="none" xmlns="http://www.w3.org/2000/svg"><style>#CL0 {fill: #00ACD7;}#CL1 {fill: #333;}@media (prefers-color-scheme: dark) {#CL0 {fill: #00ACD7;}#CL1 {fill: #EEE;}}</style><path d="M396.065 208.28c-1.418 0-2.548-.495-3.388-1.484-.821-1.008-1.232-2.38-1.232-4.116l1.372 2.1h-.98V208h-4.06v-20.44h4.2v4.2l-.14 4.06h.98l-1.372 2.1c0-1.755.411-3.127 1.232-4.116.84-.989 1.97-1.484 3.388-1.484 1.494 0 2.698.551 3.612 1.652.915 1.083 1.372 2.539 1.372 4.368v3.92c0 1.829-.457 3.295-1.372 4.396-.914 1.083-2.118 1.624-3.612 1.624Zm-1.624-3.64c.766 0 1.354-.215 1.764-.644.43-.448.644-1.073.644-1.876v-3.64c0-.821-.214-1.447-.644-1.876-.41-.429-.998-.644-1.764-.644-.802 0-1.418.233-1.848.7-.41.448-.616 1.101-.616 1.96v3.36c0 .859.206 1.521.616 1.988.43.448 1.046.672 1.848.672Zm9.565 3.36v-15.4h4.06v3.22h1.232l-1.372.98c0-1.381.402-2.473 1.204-3.276.803-.803 1.886-1.204 3.248-1.204 1.55 0 2.763.523 3.64 1.568.878 1.045 1.316 2.483 1.316 4.312v1.54h-4.2v-1.26c0-.803-.214-1.419-.644-1.848-.429-.448-1.036-.672-1.82-.672s-1.39.252-1.82.756c-.429.485-.644 1.185-.644 2.1V208h-4.2Zm19.673.28c-1.53 0-2.744-.439-3.64-1.316-.896-.896-1.344-2.063-1.344-3.5 0-1.045.243-1.941.728-2.688.504-.747 1.223-1.316 2.156-1.708.952-.411 2.091-.616 3.416-.616h3.024v-.98c0-.579-.205-1.027-.616-1.344-.392-.336-.961-.504-1.708-.504-.709 0-1.278.14-1.708.42-.41.28-.634.691-.672 1.232h-3.976c.056-1.512.654-2.716 1.792-3.612 1.139-.896 2.679-1.344 4.62-1.344 2.035 0 3.622.467 4.76 1.4 1.139.933 1.708 2.24 1.708 3.92V208h-4.06v-3.052h-.672l.756-.448c0 .765-.186 1.437-.56 2.016-.373.56-.905.999-1.596 1.316-.672.299-1.474.448-2.408.448Zm1.484-3.36c.878 0 1.568-.215 2.072-.644.523-.448.784-1.027.784-1.736v-1.568h-2.94c-.746 0-1.325.187-1.736.56-.392.355-.588.821-.588 1.4s.206 1.055.616 1.428c.43.373 1.027.56 1.792.56Zm9.621 3.08v-15.4h4.06v2.94h1.232l-1.372.98c.019-1.251.42-2.259 1.204-3.024.803-.784 1.83-1.176 3.08-1.176 1.494 0 2.688.523 3.584 1.568.915 1.045 1.372 2.436 1.372 4.172V208h-4.2v-9.52c0-.803-.214-1.419-.644-1.848-.41-.448-.989-.672-1.736-.672-.746 0-1.334.224-1.764.672-.41.429-.616 1.045-.616 1.848V208h-4.2Zm22.473.28c-1.362 0-2.557-.252-3.584-.756-1.026-.523-1.82-1.241-2.38-2.156-.56-.933-.84-2.016-.84-3.248v-3.64c0-1.251.28-2.333.84-3.248.56-.915 1.354-1.624 2.38-2.128 1.027-.523 2.222-.784 3.584-.784 2.035 0 3.659.513 4.872 1.54 1.214 1.027 1.858 2.427 1.932 4.2h-4.088c-.056-.653-.336-1.167-.84-1.54-.485-.373-1.11-.56-1.876-.56-.84 0-1.484.215-1.932.644-.448.429-.672 1.055-.672 1.876v3.64c0 .803.224 1.428.672 1.876.448.429 1.092.644 1.932.644.766 0 1.391-.177 1.876-.532.504-.373.784-.896.84-1.568h4.088c-.074 1.773-.718 3.173-1.932 4.2-1.213 1.027-2.837 1.54-4.872 1.54Zm13.43 0c-1.531 0-2.744-.439-3.64-1.316-.896-.896-1.344-2.063-1.344-3.5 0-1.045.242-1.941.728-2.688.504-.747 1.222-1.316 2.156-1.708.952-.411 2.09-.616 3.416-.616h3.024v-.98c0-.579-.206-1.027-.616-1.344-.392-.336-.962-.504-1.708-.504-.71 0-1.279.14-1.708.42-.411.28-.635.691-.672 1.232h-3.976c.056-1.512.653-2.716 1.792-3.612 1.138-.896 2.678-1.344 4.62-1.344 2.034 0 3.621.467 4.76 1.4 1.138.933 1.708 2.24 1.708 3.92V208h-4.06v-3.052h-.672l.756-.448c0 .765-.187 1.437-.56 2.016-.374.56-.906.999-1.596 1.316-.672.299-1.475.448-2.408.448Zm1.484-3.36c.877 0 1.568-.215 2.072-.644.522-.448.784-1.027.784-1.736v-1.568h-2.94c-.747 0-1.326.187-1.736.56-.392.355-.588.821-.588 1.4s.205 1.055.616 1.428c.429.373 1.026.56 1.792.56Z" id="CL1"/><path d="M488.344 208.28c-.71 0-1.288-.215-1.736-.644-.43-.429-.644-.98-.644-1.652 0-.709.214-1.288.644-1.736.448-.448 1.026-.672 1.736-.672.709 0 1.278.224 1.708.672.448.448.672 1.027.672 1.736 0 .672-.224 1.223-.672 1.652-.43.429-.999.644-1.708.644Zm11.721 4.76v-2.464h4.34c.84 0 1.512-.243 2.016-.728.504-.467.756-1.111.756-1.932v-1.288l.056-2.66h-.028c-.187.952-.644 1.689-1.372 2.212-.71.523-1.624.784-2.744.784-1.587 0-2.838-.504-3.752-1.512-.915-1.027-1.372-2.427-1.372-4.2v-3.164c0-1.773.457-3.173 1.372-4.2.914-1.045 2.165-1.568 3.752-1.568 1.082 0 1.978.261 2.688.784.728.523 1.194 1.241 1.4 2.156h.028v-2.66h2.716v15.344c0 1.568-.495 2.809-1.484 3.724-.99.915-2.334 1.372-4.032 1.372h-4.34Zm3.892-8.4c.989 0 1.773-.308 2.352-.924.578-.616.868-1.484.868-2.604v-2.884c0-1.101-.29-1.96-.868-2.576-.579-.616-1.363-.924-2.352-.924-1.027 0-1.82.299-2.38.896-.56.579-.84 1.372-.84 2.38v3.36c0 1.008.28 1.811.84 2.408.56.579 1.353.868 2.38.868Zm15.725 3.584c-1.886 0-3.388-.541-4.508-1.624-1.102-1.083-1.652-2.595-1.652-4.536v-3.528c0-1.941.55-3.453 1.652-4.536 1.12-1.083 2.622-1.624 4.508-1.624 1.885 0 3.378.541 4.48 1.624 1.12 1.083 1.68 2.595 1.68 4.536v3.528c0 1.941-.56 3.453-1.68 4.536-1.102 1.083-2.595 1.624-4.48 1.624Zm0-2.436c1.045 0 1.866-.289 2.464-.868.616-.597.924-1.465.924-2.604v-4.032c0-1.139-.308-1.997-.924-2.576-.598-.597-1.419-.896-2.464-.896-1.046 0-1.876.299-2.492.896-.598.579-.896 1.437-.896 2.576v4.032c0 1.139.298 2.007.896 2.604.616.579 1.446.868 2.492.868Z" id="CL0"/></svg>