<svg width="914" height="400" fill="none" xmlns="http://www.w3.org/2000/svg"><style>#CL0 {fill: #00ACD7;}#CL1 {fill: #333;}@media (prefers-color-scheme: dark) {#CL0 {fill: #00ACD7;}#CL1 {fill: #EEE;}}</style><path d="M401.064 200.754c0 .711-.05 1.385-.15 2.023a9.82 9.82 0 0 1-.438 1.75 6.453 6.453 0 0 1-.834 1.614 4.71 4.71 0 0 1-1.203 1.203 4.66 4.66 0 0 1-1.422.683 5.702 5.702 0 0 1-1.723.246 5.324 5.324 0 0 1-1.572-.218 4.04 4.04 0 0 1-1.258-.616 4.455 4.455 0 0 1-.56-.451 5.915 5.915 0 0 1-.492-.56l-.178 1.572h-3.418v-21h3.801v7.547c.182-.21.378-.401.588-.574.209-.183.433-.338.67-.465a4.038 4.038 0 0 1 1.093-.424c.401-.1.834-.15 1.299-.15.638 0 1.221.082 1.75.246a4.704 4.704 0 0 1 1.436.711c.337.237.642.524.916.861.273.328.515.688.724 1.08a7.85 7.85 0 0 1 .725 2.119c.164.784.246 1.623.246 2.516v.287Zm-3.801-.287c0-.392-.018-.77-.054-1.135a6.915 6.915 0 0 0-.178-1.025 4.277 4.277 0 0 0-.397-.998 2.483 2.483 0 0 0-.711-.821 2.132 2.132 0 0 0-.711-.342 3.041 3.041 0 0 0-.902-.123c-.456 0-.857.064-1.203.192a2.418 2.418 0 0 0-.889.56 2.529 2.529 0 0 0-.328.411c-.1.145-.191.305-.273.478v5.893c.109.228.232.437.369.629.146.182.314.341.506.478.228.173.492.305.793.397.31.091.661.136 1.052.136.338 0 .643-.041.916-.123.274-.082.511-.196.711-.342.283-.2.511-.46.684-.779a4.1 4.1 0 0 0 .41-1.107 6.27 6.27 0 0 0 .151-.985c.036-.355.054-.724.054-1.107v-.287Zm16.79-7.533c.575 0 1.103.041 1.586.123a8.61 8.61 0 0 1 1.19.246l-.561 3.787a12.087 12.087 0 0 0-1.545-.26 12.191 12.191 0 0 0-1.49-.096c-.492 0-.939.046-1.34.137-.392.082-.743.21-1.053.383-.373.2-.692.456-.957.766a4.045 4.045 0 0 0-.656 1.093V208h-3.801v-14.793h3.541l.151 2.092.027.328c.602-.839 1.322-1.495 2.16-1.969a5.412 5.412 0 0 1 2.748-.724ZM428.369 208a3.308 3.308 0 0 1-.232-.629 8.455 8.455 0 0 1-.165-.752 4.884 4.884 0 0 1-1.627 1.162 5.073 5.073 0 0 1-1.107.356 5.865 5.865 0 0 1-1.299.136 6.409 6.409 0 0 1-2.092-.328 4.965 4.965 0 0 1-1.627-.916 4.193 4.193 0 0 1-1.066-1.394 4.157 4.157 0 0 1-.383-1.778c0-.82.16-1.545.479-2.173a3.953 3.953 0 0 1 1.435-1.573c.575-.373 1.281-.656 2.119-.847.848-.201 1.819-.301 2.913-.301h2.119v-.875c0-.346-.055-.656-.164-.93a1.903 1.903 0 0 0-.493-.724 2.238 2.238 0 0 0-.861-.479 3.603 3.603 0 0 0-1.189-.178c-.401 0-.748.05-1.039.151a1.783 1.783 0 0 0-.711.396 1.469 1.469 0 0 0-.369.561c-.073.219-.11.46-.11.724h-3.801c0-.629.137-1.226.411-1.791a4.432 4.432 0 0 1 1.23-1.49c.529-.428 1.176-.766 1.941-1.012.775-.255 1.659-.382 2.653-.382.893 0 1.722.109 2.488.328.775.218 1.445.542 2.01.97a4.458 4.458 0 0 1 1.326 1.627c.319.648.479 1.399.479 2.256v6.344c0 .793.05 1.449.15 1.969.1.519.246.966.437 1.34V208h-3.855Zm-3.623-2.666c.383 0 .738-.046 1.066-.137.328-.091.625-.209.889-.355a3.33 3.33 0 0 0 .684-.492c.191-.192.341-.383.451-.575v-2.543h-1.942c-.592 0-1.098.06-1.517.178-.42.11-.761.264-1.026.465-.264.21-.46.46-.588.752a2.242 2.242 0 0 0-.191.93c0 .264.046.51.137.738.1.219.241.406.424.56.182.146.405.265.67.356.273.082.587.123.943.123ZM434.823 208v-14.793h3.445l.233 2.051a5.735 5.735 0 0 1 1.353-1.367 5.15 5.15 0 0 1 1.436-.711 5.461 5.461 0 0 1 1.654-.246 6.12 6.12 0 0 1 2.051.328c.62.218 1.158.565 1.613 1.039.447.483.793 1.103 1.039 1.859.256.748.383 1.659.383 2.735V208h-3.801v-9.051c0-.583-.068-1.062-.205-1.435-.127-.383-.314-.684-.56-.903a2.02 2.02 0 0 0-.889-.451 4.632 4.632 0 0 0-1.176-.137 3.94 3.94 0 0 0-1.011.123c-.301.083-.57.206-.807.37a2.576 2.576 0 0 0-.52.423 3.666 3.666 0 0 0-.423.547V208h-3.815Zm22.245-2.762c.374 0 .73-.054 1.067-.164.337-.109.633-.264.888-.465.256-.2.452-.442.588-.724.146-.283.21-.597.192-.944h3.582a4.369 4.369 0 0 1-.479 2.133 5.188 5.188 0 0 1-1.353 1.696 6.651 6.651 0 0 1-2.01 1.121 7.254 7.254 0 0 1-2.406.396c-1.149 0-2.156-.191-3.022-.574a6.076 6.076 0 0 1-2.16-1.6 6.92 6.92 0 0 1-1.326-2.365 9.535 9.535 0 0 1-.438-2.926v-.41c0-1.039.146-2.01.438-2.912a6.738 6.738 0 0 1 1.312-2.379 6.266 6.266 0 0 1 2.161-1.6c.865-.391 1.868-.587 3.007-.587.912 0 1.755.136 2.53.41a6.125 6.125 0 0 1 2.009 1.148 5.228 5.228 0 0 1 1.299 1.819c.31.701.456 1.49.438 2.365h-3.582a2.503 2.503 0 0 0-.164-1.039 2.346 2.346 0 0 0-.561-.848 2.667 2.667 0 0 0-.889-.56 2.887 2.887 0 0 0-1.134-.219c-.602 0-1.099.123-1.491.369a2.685 2.685 0 0 0-.929.984c-.237.41-.406.88-.506 1.408a9.665 9.665 0 0 0-.137 1.641v.41c0 .574.046 1.13.137 1.668.091.529.255.994.492 1.395.228.41.538.738.93.984.401.246.907.369 1.517.369Zm18.39 2.762a3.378 3.378 0 0 1-.232-.629 8.121 8.121 0 0 1-.164-.752c-.21.228-.452.442-.725.643-.273.2-.574.373-.902.519a5.1 5.1 0 0 1-1.108.356 5.865 5.865 0 0 1-1.299.136 6.403 6.403 0 0 1-2.091-.328 4.945 4.945 0 0 1-1.627-.916 4.183 4.183 0 0 1-1.067-1.394 4.157 4.157 0 0 1-.383-1.778c0-.82.16-1.545.479-2.173a3.956 3.956 0 0 1 1.436-1.573c.574-.373 1.28-.656 2.119-.847.847-.201 1.818-.301 2.912-.301h2.119v-.875c0-.346-.055-.656-.164-.93a1.911 1.911 0 0 0-.492-.724 2.243 2.243 0 0 0-.862-.479 3.598 3.598 0 0 0-1.189-.178c-.401 0-.748.05-1.039.151a1.783 1.783 0 0 0-.711.396 1.469 1.469 0 0 0-.369.561c-.073.219-.11.46-.11.724h-3.8c0-.629.136-1.226.41-1.791a4.432 4.432 0 0 1 1.23-1.49c.529-.428 1.176-.766 1.942-1.012.774-.255 1.658-.382 2.652-.382.893 0 1.723.109 2.488.328.775.218 1.445.542 2.01.97a4.458 4.458 0 0 1 1.326 1.627c.319.648.479 1.399.479 2.256v6.344c0 .793.05 1.449.15 1.969.1.519.246.966.438 1.34V208h-3.856Zm-3.623-2.666a4.073 4.073 0 0 0 1.955-.492 3.33 3.33 0 0 0 .684-.492c.191-.192.342-.383.451-.575v-2.543h-1.941c-.593 0-1.099.06-1.518.178-.419.11-.761.264-1.025.465-.265.21-.461.46-.588.752a2.227 2.227 0 0 0-.192.93c0 .264.046.51.137.738.1.219.242.406.424.56.182.146.405.265.67.356.273.082.588.123.943.123Z" id="CL1"/><path d="M486.178 206.031c0-.629.2-1.166.602-1.613.41-.447.998-.67 1.763-.67.748 0 1.331.223 1.75.67.419.437.629.975.629 1.613s-.214 1.171-.642 1.6c-.42.428-.999.642-1.737.642-.747 0-1.331-.214-1.75-.642-.41-.438-.615-.971-.615-1.6Zm11.198-5.537c0-1.121.137-2.142.41-3.062.274-.93.67-1.728 1.19-2.393a5.45 5.45 0 0 1 1.873-1.545c.738-.374 1.568-.56 2.488-.56a5.84 5.84 0 0 1 1.491.177 4.377 4.377 0 0 1 1.886.985c.21.182.406.383.588.601l.137-1.49h2.967v14.383c0 .993-.164 1.873-.493 2.639a5.469 5.469 0 0 1-1.353 1.968c-.593.529-1.303.93-2.133 1.203-.82.283-1.727.424-2.721.424-.419 0-.879-.045-1.38-.136a8.534 8.534 0 0 1-1.504-.424 6.982 6.982 0 0 1-1.436-.752 4.915 4.915 0 0 1-1.176-1.121l1.545-1.983a5.15 5.15 0 0 0 1.791 1.395c.319.146.643.25.971.314.328.073.661.11.998.11.583 0 1.098-.082 1.545-.247a3.202 3.202 0 0 0 1.162-.71c.292-.301.515-.67.67-1.108.164-.437.246-.934.246-1.49v-1.026a6.756 6.756 0 0 1-.602.561 3.6 3.6 0 0 1-.656.451 4.398 4.398 0 0 1-1.176.451c-.428.11-.893.164-1.394.164-.912 0-1.732-.186-2.461-.56a5.679 5.679 0 0 1-1.873-1.586c-.51-.665-.907-1.454-1.19-2.365a10.442 10.442 0 0 1-.41-2.981v-.287Zm3.282.287c0 .657.063 1.276.191 1.86.137.583.351 1.089.643 1.517.282.447.642.798 1.08 1.053.437.246.957.369 1.558.369a3.85 3.85 0 0 0 1.012-.123c.31-.082.588-.196.834-.342.246-.155.465-.342.656-.56.192-.219.36-.461.506-.725v-6.48a3.339 3.339 0 0 0-.533-.739 3.025 3.025 0 0 0-.697-.56 3.408 3.408 0 0 0-.793-.301 3.53 3.53 0 0 0-.957-.123c-.611 0-1.135.128-1.573.383a3.147 3.147 0 0 0-1.08 1.052 4.805 4.805 0 0 0-.642 1.559 8.177 8.177 0 0 0-.205 1.873v.287Zm12.237-.314c0-1.076.155-2.069.465-2.981.31-.92.761-1.718 1.353-2.392a6.136 6.136 0 0 1 2.147-1.586c.848-.383 1.814-.574 2.898-.574 1.085 0 2.051.191 2.899.574a6.239 6.239 0 0 1 2.174 1.586 7.036 7.036 0 0 1 1.339 2.392c.31.912.465 1.905.465 2.981v.287c0 1.085-.155 2.083-.465 2.994a7.061 7.061 0 0 1-1.339 2.379 6.12 6.12 0 0 1-2.161 1.586c-.847.383-1.809.574-2.884.574-1.085 0-2.056-.191-2.912-.574a6.12 6.12 0 0 1-2.161-1.586 6.957 6.957 0 0 1-1.353-2.379c-.31-.911-.465-1.909-.465-2.994v-.287Zm3.268.287c0 .665.068 1.294.205 1.887.146.592.369 1.112.67 1.558.291.447.665.802 1.121 1.067.455.255.998.382 1.627.382.61 0 1.144-.127 1.599-.382.456-.265.83-.62 1.121-1.067.292-.446.506-.966.643-1.558a7.87 7.87 0 0 0 .219-1.887v-.287c0-.647-.073-1.267-.219-1.86a5.22 5.22 0 0 0-.643-1.558 3.43 3.43 0 0 0-1.134-1.067c-.447-.264-.985-.396-1.614-.396-.619 0-1.157.132-1.613.396-.447.265-.816.62-1.107 1.067a4.825 4.825 0 0 0-.67 1.558 8.24 8.24 0 0 0-.205 1.86v.287Z" id="CL0"/></svg>